<mxfile host="Electron" modified="2024-05-08T17:09:13.698Z" agent="Mozilla/5.0 (X11; Linux x86_64) AppleWebKit/537.36 (KHTML, like Gecko) draw.io/24.2.5 Chrome/120.0.6099.291 Electron/28.3.1 Safari/537.36" etag="2TnIXhP6AuwaYSisffMt" version="24.2.5" type="device">
  <diagram name="Page-1" id="2cc2dc42-3aac-f2a9-1cec-7a8b7cbee084">
    <mxGraphModel dx="3707" dy="1649" grid="1" gridSize="10" guides="1" tooltips="1" connect="1" arrows="1" fold="1" page="1" pageScale="1" pageWidth="1100" pageHeight="850" background="none" math="0" shadow="0">
      <root>
        <mxCell id="0" />
        <mxCell id="1" parent="0" />
        <mxCell id="7026571954dc6520-1" value="" style="strokeWidth=1;shadow=0;dashed=0;align=center;html=1;shape=mxgraph.mockup.containers.browserWindow;rSize=0;strokeColor=#666666;mainText=,;recursiveResize=0;rounded=0;labelBackgroundColor=none;fontFamily=Verdana;fontSize=12" parent="1" vertex="1">
          <mxGeometry x="30" y="20" width="1070" height="1840" as="geometry" />
        </mxCell>
        <mxCell id="7026571954dc6520-2" value="Page 1" style="strokeWidth=1;shadow=0;dashed=0;align=center;html=1;shape=mxgraph.mockup.containers.anchor;fontSize=17;fontColor=#666666;align=left;" parent="7026571954dc6520-1" vertex="1">
          <mxGeometry x="60" y="12" width="110" height="26" as="geometry" />
        </mxCell>
        <mxCell id="7026571954dc6520-3" value="https://www.default.com" style="strokeWidth=1;shadow=0;dashed=0;align=center;html=1;shape=mxgraph.mockup.containers.anchor;rSize=0;fontSize=17;fontColor=#666666;align=left;" parent="7026571954dc6520-1" vertex="1">
          <mxGeometry x="130" y="60" width="250" height="26" as="geometry" />
        </mxCell>
        <mxCell id="7026571954dc6520-4" value="&lt;font style=&quot;font-size: 86px;&quot;&gt;BOOKMINDS&lt;/font&gt;" style="text;html=1;points=[];align=left;verticalAlign=top;spacingTop=-4;fontSize=30;fontFamily=Verdana" parent="7026571954dc6520-1" vertex="1">
          <mxGeometry x="40" y="250" width="540" height="90" as="geometry" />
        </mxCell>
        <mxCell id="zXlR0FjcC-FKmJrC6-8x-1" value="" style="rounded=0;whiteSpace=wrap;html=1;" vertex="1" parent="7026571954dc6520-1">
          <mxGeometry y="110" width="1050" height="50" as="geometry" />
        </mxCell>
        <mxCell id="zXlR0FjcC-FKmJrC6-8x-8" value="" style="group" vertex="1" connectable="0" parent="7026571954dc6520-1">
          <mxGeometry x="30" y="120" width="310" height="30" as="geometry" />
        </mxCell>
        <mxCell id="zXlR0FjcC-FKmJrC6-8x-2" value="Bookminds" style="text;html=1;align=center;verticalAlign=middle;whiteSpace=wrap;rounded=0;" vertex="1" parent="zXlR0FjcC-FKmJrC6-8x-8">
          <mxGeometry width="106.28571428571428" height="30" as="geometry" />
        </mxCell>
        <mxCell id="zXlR0FjcC-FKmJrC6-8x-3" value="About" style="text;html=1;align=center;verticalAlign=middle;whiteSpace=wrap;rounded=0;" vertex="1" parent="zXlR0FjcC-FKmJrC6-8x-8">
          <mxGeometry x="102.74285714285713" width="106.28571428571428" height="30" as="geometry" />
        </mxCell>
        <mxCell id="zXlR0FjcC-FKmJrC6-8x-4" value="Contact" style="text;html=1;align=center;verticalAlign=middle;whiteSpace=wrap;rounded=0;" vertex="1" parent="zXlR0FjcC-FKmJrC6-8x-8">
          <mxGeometry x="203.7142857142857" width="106.28571428571428" height="30" as="geometry" />
        </mxCell>
        <mxCell id="zXlR0FjcC-FKmJrC6-8x-9" value="" style="group" vertex="1" connectable="0" parent="7026571954dc6520-1">
          <mxGeometry x="670" y="120" width="310" height="30" as="geometry" />
        </mxCell>
        <mxCell id="zXlR0FjcC-FKmJrC6-8x-5" value="Events" style="text;html=1;align=center;verticalAlign=middle;whiteSpace=wrap;rounded=0;" vertex="1" parent="zXlR0FjcC-FKmJrC6-8x-9">
          <mxGeometry x="203.7142857142857" width="106.28571428571428" height="30" as="geometry" />
        </mxCell>
        <mxCell id="zXlR0FjcC-FKmJrC6-8x-6" value="Resources" style="text;html=1;align=center;verticalAlign=middle;whiteSpace=wrap;rounded=0;" vertex="1" parent="zXlR0FjcC-FKmJrC6-8x-9">
          <mxGeometry x="102.74285714285713" width="106.28571428571428" height="30" as="geometry" />
        </mxCell>
        <mxCell id="zXlR0FjcC-FKmJrC6-8x-7" value="Donate" style="text;html=1;align=center;verticalAlign=middle;whiteSpace=wrap;rounded=0;" vertex="1" parent="zXlR0FjcC-FKmJrC6-8x-9">
          <mxGeometry width="106.28571428571428" height="30" as="geometry" />
        </mxCell>
        <mxCell id="zXlR0FjcC-FKmJrC6-8x-12" value="&lt;div&gt;&lt;span style=&quot;font-size: 54px;&quot;&gt;Empowering Lives,&lt;/span&gt;&lt;span style=&quot;font-size: 54px;&quot;&gt;&lt;br&gt;&lt;/span&gt;&lt;/div&gt;&lt;span style=&quot;font-size: 54px;&quot;&gt;One Book&lt;/span&gt;&lt;div&gt;&lt;span style=&quot;font-size: 54px;&quot;&gt;At A Time&lt;/span&gt;&lt;/div&gt;" style="text;html=1;points=[];align=left;verticalAlign=top;spacingTop=-4;fontSize=30;fontFamily=Verdana" vertex="1" parent="7026571954dc6520-1">
          <mxGeometry x="40" y="390" width="450" height="200" as="geometry" />
        </mxCell>
        <mxCell id="zXlR0FjcC-FKmJrC6-8x-13" value="&lt;div&gt;&lt;span style=&quot;font-size: 54px;&quot;&gt;Donate&lt;/span&gt;&lt;/div&gt;" style="text;html=1;points=[];align=left;verticalAlign=top;spacingTop=-4;fontSize=30;fontFamily=Verdana" vertex="1" parent="7026571954dc6520-1">
          <mxGeometry x="40" y="690" width="190" height="60" as="geometry" />
        </mxCell>
        <mxCell id="zXlR0FjcC-FKmJrC6-8x-15" value="" style="whiteSpace=wrap;html=1;aspect=fixed;" vertex="1" parent="7026571954dc6520-1">
          <mxGeometry x="780" y="850" width="230" height="230" as="geometry" />
        </mxCell>
        <mxCell id="7026571954dc6520-17" value="&lt;font style=&quot;font-size: 21px;&quot;&gt;Lorem ipsum dolor sit amet, consectetur adipisicing elit, sed do eiusmod tempor incididunt ut labore et dolore magna aliqua. Ut enim ad minim veniam, quis nostrud exercitation ullamco laboris nisi ut aliquip ex ea commodo consequat. Duis aute irure dolor in reprehenderit in voluptate velit esse cillum dolore eu fugiat nulla pariatur. Excepteur sint occaecat cupidatat non proident, sunt in culpa qui officia deserunt mollit anim&amp;nbsp;&lt;/font&gt;" style="text;spacingTop=-5;whiteSpace=wrap;html=1;align=left;fontSize=12;fontFamily=Helvetica;fillColor=none;strokeColor=none;rounded=0;shadow=1;labelBackgroundColor=none;" parent="7026571954dc6520-1" vertex="1">
          <mxGeometry x="40" y="880" width="570" height="200" as="geometry" />
        </mxCell>
        <mxCell id="zXlR0FjcC-FKmJrC6-8x-16" value="" style="endArrow=none;html=1;rounded=0;entryX=0;entryY=0;entryDx=0;entryDy=0;exitX=1;exitY=1;exitDx=0;exitDy=0;" edge="1" parent="7026571954dc6520-1" source="zXlR0FjcC-FKmJrC6-8x-15" target="zXlR0FjcC-FKmJrC6-8x-15">
          <mxGeometry width="50" height="50" relative="1" as="geometry">
            <mxPoint x="440" y="1020" as="sourcePoint" />
            <mxPoint x="490" y="970" as="targetPoint" />
          </mxGeometry>
        </mxCell>
        <mxCell id="zXlR0FjcC-FKmJrC6-8x-17" value="" style="endArrow=none;html=1;rounded=0;entryX=1;entryY=0;entryDx=0;entryDy=0;exitX=0;exitY=1;exitDx=0;exitDy=0;" edge="1" parent="7026571954dc6520-1" source="zXlR0FjcC-FKmJrC6-8x-15" target="zXlR0FjcC-FKmJrC6-8x-15">
          <mxGeometry width="50" height="50" relative="1" as="geometry">
            <mxPoint x="1020" y="1090" as="sourcePoint" />
            <mxPoint x="790" y="860" as="targetPoint" />
          </mxGeometry>
        </mxCell>
        <mxCell id="zXlR0FjcC-FKmJrC6-8x-18" value="" style="verticalLabelPosition=bottom;shadow=0;dashed=0;align=center;html=1;verticalAlign=top;strokeWidth=1;shape=mxgraph.mockup.markup.line;strokeColor=#999999;rounded=0;labelBackgroundColor=none;fillColor=#ffffff;fontFamily=Verdana;fontSize=12;fontColor=#000000;" vertex="1" parent="7026571954dc6520-1">
          <mxGeometry x="10" y="1300.19" width="1050" height="20" as="geometry" />
        </mxCell>
        <mxCell id="zXlR0FjcC-FKmJrC6-8x-19" value="Quotes from Famous Authors in marquee style&lt;div style=&quot;font-size: 15px;&quot;&gt;&lt;br style=&quot;font-size: 15px;&quot;&gt;&lt;div style=&quot;font-size: 15px;&quot;&gt;- Some famous author&lt;/div&gt;&lt;/div&gt;" style="text;html=1;align=center;verticalAlign=middle;whiteSpace=wrap;rounded=0;fontSize=15;" vertex="1" parent="7026571954dc6520-1">
          <mxGeometry x="140" y="1155" width="169.5" height="115" as="geometry" />
        </mxCell>
        <mxCell id="zXlR0FjcC-FKmJrC6-8x-20" value="Quotes from Famous Authors in marquee style&lt;div style=&quot;font-size: 15px;&quot;&gt;&lt;br style=&quot;font-size: 15px;&quot;&gt;&lt;div style=&quot;font-size: 15px;&quot;&gt;- Some famous author&lt;/div&gt;&lt;/div&gt;" style="text;html=1;align=center;verticalAlign=middle;whiteSpace=wrap;rounded=0;fontSize=15;" vertex="1" parent="7026571954dc6520-1">
          <mxGeometry x="710" y="1155" width="169.5" height="115" as="geometry" />
        </mxCell>
        <mxCell id="zXlR0FjcC-FKmJrC6-8x-21" value="Quotes from Famous Authors in marquee style&lt;div style=&quot;font-size: 15px;&quot;&gt;&lt;br style=&quot;font-size: 15px;&quot;&gt;&lt;div style=&quot;font-size: 15px;&quot;&gt;- Some famous author&lt;/div&gt;&lt;/div&gt;" style="text;html=1;align=center;verticalAlign=middle;whiteSpace=wrap;rounded=0;fontSize=15;" vertex="1" parent="7026571954dc6520-1">
          <mxGeometry x="420.5" y="1155" width="169" height="115" as="geometry" />
        </mxCell>
        <mxCell id="zXlR0FjcC-FKmJrC6-8x-24" value="&lt;font style=&quot;font-size: 21px;&quot;&gt;Lorem ipsum dolor sit amet, consectetur adipisicing elit, sed do eiusmod tempor incididunt ut labore et dolore magna aliqua. Ut enim ad minim veniam, quis nostrud exercitation ullamco laboris nisi ut aliquip ex ea commodo consequat. Duis aute irure dolor in reprehenderit in voluptate velit esse cillum dolore eu fugiat nulla pariatur. Excepteur sint occaecat cupidatat non proident, sunt in culpa qui officia deserunt mollit anim&amp;nbsp;&lt;/font&gt;" style="text;spacingTop=-5;whiteSpace=wrap;html=1;align=left;fontSize=12;fontFamily=Helvetica;fillColor=none;strokeColor=none;rounded=0;shadow=1;labelBackgroundColor=none;" vertex="1" parent="7026571954dc6520-1">
          <mxGeometry x="450" y="1370" width="570" height="200" as="geometry" />
        </mxCell>
        <mxCell id="zXlR0FjcC-FKmJrC6-8x-28" value="&lt;font style=&quot;font-size: 31px;&quot;&gt;Why we love reading&lt;/font&gt;" style="text;html=1;points=[];align=center;verticalAlign=top;spacingTop=-4;fontSize=15;fontFamily=Verdana" vertex="1" parent="7026571954dc6520-1">
          <mxGeometry x="580" y="1320.19" width="310" height="49.81" as="geometry" />
        </mxCell>
        <mxCell id="zXlR0FjcC-FKmJrC6-8x-23" value="" style="whiteSpace=wrap;html=1;aspect=fixed;" vertex="1" parent="7026571954dc6520-1">
          <mxGeometry x="79.5" y="1350.19" width="230" height="230" as="geometry" />
        </mxCell>
        <mxCell id="zXlR0FjcC-FKmJrC6-8x-25" value="" style="endArrow=none;html=1;rounded=0;entryX=0;entryY=0;entryDx=0;entryDy=0;exitX=1;exitY=1;exitDx=0;exitDy=0;" edge="1" source="zXlR0FjcC-FKmJrC6-8x-23" target="zXlR0FjcC-FKmJrC6-8x-23" parent="7026571954dc6520-1">
          <mxGeometry width="50" height="50" relative="1" as="geometry">
            <mxPoint x="450" y="1500" as="sourcePoint" />
            <mxPoint x="500" y="1450" as="targetPoint" />
          </mxGeometry>
        </mxCell>
        <mxCell id="zXlR0FjcC-FKmJrC6-8x-26" value="" style="endArrow=none;html=1;rounded=0;entryX=1;entryY=0;entryDx=0;entryDy=0;exitX=0;exitY=1;exitDx=0;exitDy=0;" edge="1" source="zXlR0FjcC-FKmJrC6-8x-23" target="zXlR0FjcC-FKmJrC6-8x-23" parent="7026571954dc6520-1">
          <mxGeometry width="50" height="50" relative="1" as="geometry">
            <mxPoint x="1030" y="1570" as="sourcePoint" />
            <mxPoint x="800" y="1340" as="targetPoint" />
          </mxGeometry>
        </mxCell>
        <mxCell id="zXlR0FjcC-FKmJrC6-8x-29" value="" style="verticalLabelPosition=bottom;shadow=0;dashed=0;align=center;html=1;verticalAlign=top;strokeWidth=1;shape=mxgraph.mockup.markup.line;strokeColor=#999999;rounded=0;labelBackgroundColor=none;fillColor=#ffffff;fontFamily=Verdana;fontSize=12;fontColor=#000000;" vertex="1" parent="7026571954dc6520-1">
          <mxGeometry x="10" y="1620" width="1050" height="20" as="geometry" />
        </mxCell>
        <mxCell id="zXlR0FjcC-FKmJrC6-8x-31" value="&lt;font style=&quot;font-size: 16px;&quot;&gt;BOOKMINDS® is registered trademarks of&amp;nbsp;Jayrup Charities.&lt;span style=&quot;font-family: &amp;quot;Source Sans Pro&amp;quot;, &amp;quot;Helvetica Neue&amp;quot;, Helvetica, Arial, &amp;quot;Lucida Grande&amp;quot;, sans-serif;&quot;&gt;&amp;nbsp;This website is © Copyright 2024-2046, Jayrup Technologies, Inc.&lt;/span&gt;&lt;/font&gt;" style="text;html=1;align=center;verticalAlign=middle;resizable=0;points=[];autosize=1;" vertex="1" parent="7026571954dc6520-1">
          <mxGeometry x="75" y="1790" width="910" height="30" as="geometry" />
        </mxCell>
        <mxCell id="zXlR0FjcC-FKmJrC6-8x-32" value="" style="shape=image;html=1;verticalAlign=top;verticalLabelPosition=bottom;labelBackgroundColor=#ffffff;imageAspect=0;aspect=fixed;image=https://cdn2.iconfinder.com/data/icons/social-media-2285/512/1_Twitter_colored_svg-128.png" vertex="1" parent="7026571954dc6520-1">
          <mxGeometry x="395" y="1670" width="50" height="50" as="geometry" />
        </mxCell>
        <mxCell id="zXlR0FjcC-FKmJrC6-8x-33" value="" style="shape=image;html=1;verticalAlign=top;verticalLabelPosition=bottom;labelBackgroundColor=#ffffff;imageAspect=0;aspect=fixed;image=https://cdn4.iconfinder.com/data/icons/logos-brands-7/512/instagram_icon-instagram_buttoninstegram-128.png" vertex="1" parent="7026571954dc6520-1">
          <mxGeometry x="467" y="1670" width="50" height="50" as="geometry" />
        </mxCell>
        <mxCell id="zXlR0FjcC-FKmJrC6-8x-34" value="" style="shape=image;html=1;verticalAlign=top;verticalLabelPosition=bottom;labelBackgroundColor=#ffffff;imageAspect=0;aspect=fixed;image=https://cdn4.iconfinder.com/data/icons/social-media-flat-7/64/Social-media_Youtube-128.png" vertex="1" parent="7026571954dc6520-1">
          <mxGeometry x="537" y="1670" width="50" height="50" as="geometry" />
        </mxCell>
        <mxCell id="zXlR0FjcC-FKmJrC6-8x-35" value="" style="shape=image;html=1;verticalAlign=top;verticalLabelPosition=bottom;labelBackgroundColor=#ffffff;imageAspect=0;aspect=fixed;image=https://cdn2.iconfinder.com/data/icons/social-media-2285/512/1_Facebook_colored_svg_copy-128.png" vertex="1" parent="7026571954dc6520-1">
          <mxGeometry x="615" y="1670" width="50" height="50" as="geometry" />
        </mxCell>
        <mxCell id="zXlR0FjcC-FKmJrC6-8x-36" value="LEGAL" style="text;html=1;align=center;verticalAlign=middle;whiteSpace=wrap;rounded=0;" vertex="1" parent="7026571954dc6520-1">
          <mxGeometry x="370" y="1750" width="60" height="30" as="geometry" />
        </mxCell>
        <mxCell id="zXlR0FjcC-FKmJrC6-8x-37" value="CONTACT US" style="text;html=1;align=center;verticalAlign=middle;whiteSpace=wrap;rounded=0;" vertex="1" parent="7026571954dc6520-1">
          <mxGeometry x="445" y="1750" width="80" height="30" as="geometry" />
        </mxCell>
        <mxCell id="zXlR0FjcC-FKmJrC6-8x-38" value="PRIVACY" style="text;html=1;align=center;verticalAlign=middle;whiteSpace=wrap;rounded=0;" vertex="1" parent="7026571954dc6520-1">
          <mxGeometry x="540" y="1750" width="60" height="30" as="geometry" />
        </mxCell>
        <mxCell id="zXlR0FjcC-FKmJrC6-8x-39" value="ABOUT US" style="text;html=1;align=center;verticalAlign=middle;whiteSpace=wrap;rounded=0;" vertex="1" parent="7026571954dc6520-1">
          <mxGeometry x="620" y="1750" width="70" height="30" as="geometry" />
        </mxCell>
        <mxCell id="zXlR0FjcC-FKmJrC6-8x-40" style="rounded=0;orthogonalLoop=1;jettySize=auto;html=1;" edge="1" parent="7026571954dc6520-1" source="zXlR0FjcC-FKmJrC6-8x-41" target="zXlR0FjcC-FKmJrC6-8x-32">
          <mxGeometry relative="1" as="geometry">
            <mxPoint x="20" y="1749" as="targetPoint" />
          </mxGeometry>
        </mxCell>
        <mxCell id="zXlR0FjcC-FKmJrC6-8x-41" value="Social Media links" style="rounded=0;whiteSpace=wrap;html=1;fontSize=23;" vertex="1" parent="7026571954dc6520-1">
          <mxGeometry x="-250" y="1570" width="190" height="60" as="geometry" />
        </mxCell>
        <mxCell id="zXlR0FjcC-FKmJrC6-8x-42" value="Copyright information" style="rounded=0;whiteSpace=wrap;html=1;fontSize=23;" vertex="1" parent="7026571954dc6520-1">
          <mxGeometry x="-280" y="1690" width="190" height="60" as="geometry" />
        </mxCell>
        <mxCell id="zXlR0FjcC-FKmJrC6-8x-43" style="rounded=0;orthogonalLoop=1;jettySize=auto;html=1;" edge="1" parent="7026571954dc6520-1" source="zXlR0FjcC-FKmJrC6-8x-42" target="zXlR0FjcC-FKmJrC6-8x-31">
          <mxGeometry relative="1" as="geometry">
            <mxPoint x="365" y="1811" as="targetPoint" />
          </mxGeometry>
        </mxCell>
        <mxCell id="zXlR0FjcC-FKmJrC6-8x-44" style="rounded=0;orthogonalLoop=1;jettySize=auto;html=1;" edge="1" parent="7026571954dc6520-1" source="zXlR0FjcC-FKmJrC6-8x-45" target="zXlR0FjcC-FKmJrC6-8x-39">
          <mxGeometry relative="1" as="geometry">
            <mxPoint x="1051" y="1602" as="targetPoint" />
          </mxGeometry>
        </mxCell>
        <mxCell id="zXlR0FjcC-FKmJrC6-8x-45" value="Additional links" style="rounded=0;whiteSpace=wrap;html=1;fontSize=23;" vertex="1" parent="7026571954dc6520-1">
          <mxGeometry x="1162.5" y="1690" width="175" height="70" as="geometry" />
        </mxCell>
        <mxCell id="7026571954dc6520-15" value="" style="verticalLabelPosition=bottom;shadow=0;dashed=0;align=center;html=1;verticalAlign=top;strokeWidth=1;shape=mxgraph.mockup.markup.line;strokeColor=#999999;rounded=0;labelBackgroundColor=none;fillColor=#ffffff;fontFamily=Verdana;fontSize=12;fontColor=#000000;" parent="1" vertex="1">
          <mxGeometry x="30" y="840" width="1070" height="20" as="geometry" />
        </mxCell>
        <mxCell id="7026571954dc6520-16" value="&lt;font style=&quot;font-size: 31px;&quot;&gt;Our Goal&lt;/font&gt;" style="text;html=1;points=[];align=center;verticalAlign=top;spacingTop=-4;fontSize=15;fontFamily=Verdana" parent="1" vertex="1">
          <mxGeometry x="50" y="860" width="170" height="30" as="geometry" />
        </mxCell>
        <mxCell id="7026571954dc6520-21" value="" style="verticalLabelPosition=bottom;shadow=0;dashed=0;align=center;html=1;verticalAlign=top;strokeWidth=1;shape=mxgraph.mockup.markup.line;strokeColor=#999999;rounded=0;labelBackgroundColor=none;fillColor=#ffffff;fontFamily=Verdana;fontSize=12;fontColor=#000000;" parent="1" vertex="1">
          <mxGeometry x="30" y="1110" width="1070" height="20" as="geometry" />
        </mxCell>
        <mxCell id="zXlR0FjcC-FKmJrC6-8x-46" value="Quotes from famous authors for inspiration" style="rounded=0;whiteSpace=wrap;html=1;fontSize=23;" vertex="1" parent="1">
          <mxGeometry x="1140" y="1130" width="197.5" height="120" as="geometry" />
        </mxCell>
        <mxCell id="zXlR0FjcC-FKmJrC6-8x-47" style="rounded=0;orthogonalLoop=1;jettySize=auto;html=1;" edge="1" source="zXlR0FjcC-FKmJrC6-8x-46" parent="1" target="zXlR0FjcC-FKmJrC6-8x-20">
          <mxGeometry relative="1" as="geometry">
            <mxPoint x="760" y="1223" as="targetPoint" />
          </mxGeometry>
        </mxCell>
        <mxCell id="zXlR0FjcC-FKmJrC6-8x-48" value="Navigation bar with all the important links" style="rounded=0;whiteSpace=wrap;html=1;fontSize=23;" vertex="1" parent="1">
          <mxGeometry x="1070" y="250" width="240" height="100" as="geometry" />
        </mxCell>
        <mxCell id="zXlR0FjcC-FKmJrC6-8x-49" style="rounded=0;orthogonalLoop=1;jettySize=auto;html=1;" edge="1" source="zXlR0FjcC-FKmJrC6-8x-48" parent="1">
          <mxGeometry relative="1" as="geometry">
            <mxPoint x="1020" y="174" as="targetPoint" />
          </mxGeometry>
        </mxCell>
        <mxCell id="zXlR0FjcC-FKmJrC6-8x-50" value="Simple hero page with a call to action" style="rounded=0;whiteSpace=wrap;html=1;fontSize=23;" vertex="1" parent="1">
          <mxGeometry x="-240" y="450" width="210" height="80" as="geometry" />
        </mxCell>
        <mxCell id="zXlR0FjcC-FKmJrC6-8x-51" style="edgeStyle=orthogonalEdgeStyle;rounded=0;orthogonalLoop=1;jettySize=auto;html=1;exitX=1;exitY=0.5;exitDx=0;exitDy=0;entryX=-0.003;entryY=0.592;entryDx=0;entryDy=0;entryPerimeter=0;" edge="1" parent="1" source="zXlR0FjcC-FKmJrC6-8x-50" target="zXlR0FjcC-FKmJrC6-8x-13">
          <mxGeometry relative="1" as="geometry" />
        </mxCell>
      </root>
    </mxGraphModel>
  </diagram>
</mxfile>
